<?xml version="1.0" standalone="no"?>
<!DOCTYPE svg PUBLIC "-//W3C//DTD SVG 20010904//EN"
 "http://www.w3.org/TR/2001/REC-SVG-20010904/DTD/svg10.dtd">
<svg version="1.0" xmlns="http://www.w3.org/2000/svg"
 width="1000.000000pt" height="1000.000000pt" viewBox="0 0 1000.000000 1000.000000"
 preserveAspectRatio="xMidYMid meet">

<g transform="translate(0.000000,1000.000000) scale(0.100000,-0.100000)"
fill="#000000" stroke="none">
<path d="M4920 8814 c-162 -13 -335 -55 -468 -113 -48 -21 -154 -79 -237 -129
-82 -50 -222 -133 -310 -186 -88 -52 -211 -126 -273 -163 -62 -38 -423 -255
-804 -483 -657 -395 -695 -419 -785 -504 -229 -217 -369 -472 -440 -806 -17
-80 -18 -170 -18 -1455 0 -1286 1 -1375 18 -1455 65 -305 165 -510 350 -720
108 -123 211 -207 352 -287 39 -22 187 -109 330 -193 342 -201 646 -379 830
-485 55 -32 132 -77 170 -100 39 -23 125 -74 193 -114 322 -187 372 -217 436
-258 128 -84 304 -154 476 -190 120 -25 411 -25 528 0 195 42 316 94 552 236
80 49 201 121 270 161 69 40 148 86 175 103 28 17 140 83 250 147 404 237 673
394 775 455 58 34 200 117 315 184 116 68 226 135 245 149 68 51 213 198 269
272 98 130 194 312 226 432 8 29 24 86 35 127 39 146 41 232 37 1626 -3 1200
-5 1347 -20 1405 -82 328 -194 536 -394 734 -129 129 -171 157 -668 451 -110
64 -216 128 -235 140 -19 12 -91 55 -160 95 -69 40 -141 83 -160 95 -19 12
-192 116 -385 231 -192 114 -406 241 -475 282 -285 171 -374 215 -520 260
-126 38 -358 65 -480 56z m1795 -1271 c-6 -47 -205 -2296 -205 -2314 0 -5
-119 -9 -290 -9 -201 0 -290 3 -290 11 0 20 -189 2263 -195 2312 l-6 47 496 0
496 0 -6 -47z m-3077 -2478 l-3 -644 -330 190 c-181 105 -410 236 -508 292
l-177 100 2 651 3 651 23 47 c47 95 75 115 542 388 l445 261 3 -646 c1 -355 1
-935 0 -1290z m340 1878 c214 -125 278 -161 419 -242 82 -47 164 -95 183 -107
19 -12 80 -48 135 -79 55 -32 140 -82 190 -111 l89 -53 36 21 c19 11 76 44
125 73 50 28 151 87 225 130 74 44 162 94 195 112 l60 32 12 -112 c19 -193 76
-735 93 -890 5 -55 8 -103 5 -107 -3 -5 -29 -22 -58 -38 -54 -30 -180 -103
-345 -199 -237 -138 -294 -157 -421 -134 -65 12 -100 29 -326 161 -44 26 -125
73 -180 105 -55 32 -120 70 -145 85 -25 15 -88 52 -140 82 -52 30 -132 77
-177 103 l-83 48 0 588 c0 324 2 589 5 589 3 0 49 -26 103 -57z m3050 -323
c227 -132 279 -176 329 -277 l28 -58 0 -1300 0 -1300 -23 -58 c-46 -113 -82
-140 -560 -416 -238 -138 -435 -251 -437 -251 -3 0 -4 174 -3 386 l3 386 65
18 c121 32 201 78 291 165 219 212 259 541 100 820 -54 95 -170 202 -271 251
-47 23 -105 47 -130 54 -81 24 -66 30 73 30 75 0 137 1 138 3 3 15 45 390 104
932 8 72 24 211 35 310 11 99 25 235 32 303 7 67 13 122 15 122 2 0 97 -54
211 -120z m-679 -1785 c87 -23 157 -64 219 -129 171 -179 175 -449 7 -625 -91
-95 -202 -141 -346 -141 -144 0 -247 38 -340 127 -177 168 -185 462 -17 639
29 31 73 68 98 82 96 57 265 78 379 47z m-2264 -935 c50 -29 115 -67 145 -85
52 -30 117 -68 350 -203 52 -31 120 -70 150 -87 30 -18 104 -60 163 -94 59
-35 114 -61 121 -58 7 3 100 56 207 117 107 62 284 164 393 227 l199 114 71
-35 c39 -20 79 -36 88 -36 9 0 19 -4 23 -9 3 -5 34 -13 70 -16 l65 -7 -2 -446
-3 -446 -150 -87 c-82 -47 -265 -153 -405 -234 -477 -276 -453 -265 -569 -265
-94 1 -148 19 -271 92 -52 30 -162 95 -245 143 -82 48 -197 115 -255 149 -58
35 -163 96 -234 137 l-128 74 3 587 4 587 60 -33 c33 -19 101 -58 150 -86z"/>
</g>
</svg>
